<?xml version="1.0" encoding="UTF-8" standalone="no"?>
<svg
   xmlns:dc="http://purl.org/dc/elements/1.1/"
   xmlns:cc="http://creativecommons.org/ns#"
   xmlns:rdf="http://www.w3.org/1999/02/22-rdf-syntax-ns#"
   xmlns:svg="http://www.w3.org/2000/svg"
   xmlns="http://www.w3.org/2000/svg"
   xmlns:xlink="http://www.w3.org/1999/xlink"
   xmlns:sodipodi="http://sodipodi.sourceforge.net/DTD/sodipodi-0.dtd"
   xmlns:inkscape="http://www.inkscape.org/namespaces/inkscape"
   version="1.1"
   preserveAspectRatio="xMidYMid meet"
   viewBox="0 0 162 95"
   width="162"
   height="95"
   id="svg36"
   sodipodi:docname="untitled.svg"
   inkscape:version="0.92.4 (f8dce91, 2019-08-02)">
  <metadata
     id="metadata40">
    <rdf:RDF>
      <cc:Work
         rdf:about="">
        <dc:format>image/svg+xml</dc:format>
        <dc:type
           rdf:resource="http://purl.org/dc/dcmitype/StillImage" />
        <dc:title></dc:title>
      </cc:Work>
    </rdf:RDF>
  </metadata>
  <sodipodi:namedview
     pagecolor="#ffffff"
     bordercolor="#666666"
     borderopacity="1"
     objecttolerance="10"
     gridtolerance="10"
     guidetolerance="10"
     inkscape:pageopacity="0"
     inkscape:pageshadow="2"
     inkscape:window-width="1920"
     inkscape:window-height="1011"
     id="namedview38"
     showgrid="false"
     inkscape:zoom="1.3328125"
     inkscape:cx="320"
     inkscape:cy="320"
     inkscape:window-x="0"
     inkscape:window-y="24"
     inkscape:window-maximized="1"
     inkscape:current-layer="svg36" />
  <defs
     id="defs6">
    <path
       d="m 133.64,36.29 3.03,9.85 10.6,0.75 12.12,-1.51 -6.06,-8.33 -10.6,2.27 -8.34,6.82 -6.81,7.57 1.51,10.61 0.76,11.36 1.51,10.61 2.28,9.85 10.6,2.27 9.09,-6.82 6.06,-9.85 4.55,-10.6 1.51,-10.61 -1.51,-10.61 -5.3,-9.09 -10.61,-0.75 -10.61,6.06 -6.06,9.09 v 10.6 10.61 l 2.28,9.85 2.27,9.85 9.85,2.27 9.85,-4.55 6.81,-9.09 3.03,-9.85 1.52,-12.12 -2.27,-10.6 -6.06,-8.34"
       id="conecta"
       inkscape:connector-curvature="0" />
    <path
       d="m 117.73,55.23 h -11.37 l -9.84,3.79 -0.76,10.6 9.09,4.55 10.6,-0.76 10.61,-2.27 9.85,-3.79 -2.27,-10.61 -9.85,-3.03 -10.61,-0.76 -10.6,0.76 -7.58,6.82 2.27,11.36 2.28,9.85 4.54,9.85 6.06,8.33 6.82,8.34 10.61,2.27 12.12,-1.51 3.03,-9.85 -2.28,-9.85 -2.27,-9.85 -4.54,-10.61 -4.55,-9.09 -8.33,-6.82 h -11.37 l -9.84,5.31 -3.03,9.85 0.75,11.36 6.06,8.33 7.58,9.09 4.54,9.09 9.85,3.79 9.85,3.03 8.33,-7.57 -3.78,-10.61"
       id="miespacio"
       inkscape:connector-curvature="0" />
    <path
       d="M 90.45,77.95 H 78.33 l 2.28,10.61 10.6,0.76 9.85,-3.03 6.06,-8.34 H 95.76 l -12.12,2.28 -7.58,6.82 9.09,5.3 11.37,-3.03 8.33,-6.06 7.57,7.57 2.28,9.85 0.75,10.61 -10.6,0.76 -6.06,-9.1 -4.55,-9.09 -9.09,-4.54 v 10.6 l 9.85,3.79"
       id="aldeas"
       inkscape:connector-curvature="0" />
    <path
       d="m 167.73,56.74 12.12,2.28 10.6,3.03 9.85,6.06 -5.3,9.09 -10.61,-0.76 -10.6,-2.27 -9.09,-6.06 -0.76,-10.61 11.36,-0.76 11.37,2.28 9.85,2.27 6.06,9.09 -6.06,9.85 -10.61,1.51 -9.85,-4.54 -8.33,-7.58 -10.61,-3.79 -6.06,8.34 v 11.36 10.61 l 8.33,6.06 10.61,-0.76 9.85,-6.06 3.79,-9.85 V 74.92 l -8.34,-6.06 -11.36,-1.51 -3.79,-9.85 -8.33,6.06 1.51,10.61 0.76,10.6 3.79,9.85 8.33,6.06 11.37,-0.76 6.81,-8.33 6.82,-7.57"
       id="hogar"
       inkscape:connector-curvature="0" />
  </defs>
  <g
     id="g34"
     transform="translate(-58.522861,-25.04689)">
    <g
       id="g32">
      <g
         id="g12">
        <g
           id="g10">
          <use
             xlink:href="#conecta"
             id="use8"
             style="opacity:1;fill-opacity:0;stroke:#619996;stroke-width:1;stroke-opacity:1"
             x="0"
             y="0"
             width="100%"
             height="100%" />
        </g>
      </g>
      <g
         id="g18">
        <g
           id="g16">
          <use
             xlink:href="#miespacio"
             id="use14"
             style="opacity:1;fill-opacity:0;stroke:#619996;stroke-width:1;stroke-opacity:1"
             x="0"
             y="0"
             width="100%"
             height="100%" />
        </g>
      </g>
      <g
         id="g24">
        <g
           id="g22">
          <use
             xlink:href="#aldeas"
             id="use20"
             style="opacity:1;fill-opacity:0;stroke:#619996;stroke-width:1;stroke-opacity:1"
             x="0"
             y="0"
             width="100%"
             height="100%" />
        </g>
      </g>
      <g
         id="g30">
        <g
           id="g28">
          <use
             xlink:href="#hogar"
             id="use26"
             style="opacity:1;fill-opacity:0;stroke:#619996;stroke-width:1;stroke-opacity:1"
             x="0"
             y="0"
             width="100%"
             height="100%" />
        </g>
      </g>
    </g>
  </g>
</svg>
